# Vertices
v -0.5 -0.5 -0.5
v -0.5 -0.5  0.5
v -0.5  0.5 -0.5
v -0.5  0.5  0.5
v  0.5 -0.5 -0.5
v  0.5 -0.5  0.5
v  0.5  0.5 -0.5
v  0.5  0.5  0.5

# Texture coordinates
vt 0.0 0.0
vt 1.0 0.0
vt 0.0 1.0
vt 1.0 1.0

# Normals
vn -1.0  0.0  0.0
vn  1.0  0.0  0.0
vn  0.0 -1.0  0.0
vn  0.0  1.0  0.0
vn  0.0  0.0 -1.0
vn  0.0  0.0  1.0

# Faces
# Left face
f 1/1/1 2/2/1 4/4/1
f 1/1/1 4/4/1 3/3/1
# Right face
f 5/1/2 7/3/2 8/4/2
f 5/1/2 8/4/2 6/2/2
# Bottom face
f 1/1/3 5/2/3 6/4/3
f 1/1/3 6/4/3 2/3/3
# Top face
f 3/1/4 4/2/4 8/4/4
f 3/1/4 8/4/4 7/3/4
# Back face
f 1/1/5 3/3/5 7/4/5
f 1/1/5 7/4/5 5/2/5
# Front face
f 2/1/6 6/2/6 8/4/6
f 2/1/6 8/4/6 4/3/6
